HIERARCHY
ROOT Pelvis
{
	OFFSET 0.000000 0.941512 0.000000
	CHANNELS 6 Xposition Yposition Zposition Zrotation Yrotation Xrotation 
	JOINT Pelvis_L_Hip
	{
		OFFSET 0.000000 0.000000 0.000000
		CHANNELS 3 Zrotation Yrotation Xrotation
		JOINT L_Hip
		{
			OFFSET 0.062321 -0.080322 -0.016990
			CHANNELS 3 Zrotation Yrotation Xrotation
			JOINT L_Knee
			{
				OFFSET 0.093051 -0.381305 -0.029784
				CHANNELS 3 Zrotation Yrotation Xrotation
				JOINT L_Ankle
				{
					OFFSET -0.010371 -0.431000 -0.033614
					CHANNELS 3 Zrotation Yrotation Xrotation
					End Site #name: L_Foot
					{
						OFFSET 0.069299 -0.038670 0.119418
					}
				}
			}
		}
	}
	JOINT Pelvis_R_Hip
	{
		OFFSET 0.000000 0.000000 0.000000
		CHANNELS 3 Zrotation Yrotation Xrotation
		JOINT R_Hip
		{
			OFFSET -0.055334 -0.094904 -0.002373
			CHANNELS 3 Zrotation Yrotation Xrotation
			JOINT R_Knee
			{
				OFFSET -0.064207 -0.384370 -0.019592
				CHANNELS 3 Zrotation Yrotation Xrotation
				JOINT R_Ankle
				{
					OFFSET 0.025418 -0.419734 -0.065953
					CHANNELS 3 Zrotation Yrotation Xrotation
					End Site #name: R_Foot
					{
						OFFSET -0.057233 -0.039888 0.132134
					}
				}
			}
		}
	}
	JOINT Pelvis_Spine1
	{
		OFFSET 0.000000 0.000000 0.000000
		CHANNELS 3 Zrotation Yrotation Xrotation
		JOINT Spine1
		{
			OFFSET -0.005562 0.124093 -0.043360
			CHANNELS 3 Zrotation Yrotation Xrotation
			JOINT Spine2
			{
				OFFSET 0.012244 0.139499 0.029894
				CHANNELS 3 Zrotation Yrotation Xrotation
				JOINT Spine3
				{
					OFFSET -0.002556 0.056561 0.009225
					CHANNELS 3 Zrotation Yrotation Xrotation
					JOINT Spine3_Neck
					{
						OFFSET 0.000000 0.000000 0.000000
						CHANNELS 3 Zrotation Yrotation Xrotation
						JOINT Neck
						{
							OFFSET -0.005205 0.217920 -0.024551
							CHANNELS 3 Zrotation Yrotation Xrotation
							End Site #name: Head
							{
								OFFSET 0.002365 0.091850 0.046637
							}
						}
					}
					JOINT Spine3_L_Collar
					{
						OFFSET 0.000000 0.000000 0.000000
						CHANNELS 3 Zrotation Yrotation Xrotation
						JOINT L_Collar
						{
							OFFSET 0.072225 0.116603 -0.009480
							CHANNELS 3 Zrotation Yrotation Xrotation
							JOINT L_Shoulder
							{
								OFFSET 0.115937 -0.058643 -0.021018
								CHANNELS 3 Zrotation Yrotation Xrotation
								JOINT L_Elbow
								{
									OFFSET 0.021994 -0.254722 -0.024492
									CHANNELS 3 Zrotation Yrotation Xrotation
									End Site #name: L_Wrist
									{
										OFFSET 0.048810 -0.240214 0.103329
									}
								}
							}
						}
					}
					JOINT Spine3_R_Collar
					{
						OFFSET 0.000000 0.000000 0.000000
						CHANNELS 3 Zrotation Yrotation Xrotation
						JOINT R_Collar
						{
							OFFSET -0.073372 0.120704 -0.024611
							CHANNELS 3 Zrotation Yrotation Xrotation
							JOINT R_Shoulder
							{
								OFFSET -0.108089 -0.054969 -0.020504
								CHANNELS 3 Zrotation Yrotation Xrotation
								JOINT R_Elbow
								{
									OFFSET -0.033684 -0.260739 0.009889
									CHANNELS 3 Zrotation Yrotation Xrotation
									End Site #name: R_Wrist
									{
										OFFSET -0.067980 -0.232763 0.118463
									}
								}
							}
						}
					}
				}
			}
		}
	}
}
MOTION
Frames: 15
Frame Time: 0.041667
0.000000 0.955458 0.000000 -2.483837 -12.813133 3.822869 0.000000 0.000000 0.000000 -2.562038 -6.874697 -29.330369 4.574836 -1.145680 15.067994 -8.052898 4.643576 18.666185 0.000000 0.000000 0.000000 2.589703 -0.300967 0.695442 5.804906 1.412462 39.405077 6.075225 -14.724348 27.853107 0.000000 0.000000 0.000000 0.252758 0.529798 -7.399494 -2.907666 0.363070 -1.482159 4.130072 6.997371 5.674340 0.000000 0.000000 0.000000 -3.985522 2.826506 18.823806 0.000000 0.000000 0.000000 33.789888 10.213263 15.744953 -6.476283 3.815392 21.227891 -26.457309 -46.085915 -52.371116 0.000000 0.000000 0.000000 -37.674937 9.780942 -0.203587 33.605000 -2.998192 8.727648 6.005471 43.607853 -67.707357 
-0.009223 0.916040 0.091856 -1.796953 -12.161769 0.869798 0.000000 0.000000 0.000000 -5.799908 -7.177241 -27.705282 4.377034 -1.456602 29.815303 2.234551 3.522277 -2.269623 0.000000 0.000000 0.000000 0.355572 0.200577 -1.360354 10.531020 -0.443974 54.790518 0.643992 -19.815468 23.119276 0.000000 0.000000 0.000000 -0.040625 0.288192 -3.771007 -2.934046 0.194067 -4.288403 3.212955 5.699424 7.934692 0.000000 0.000000 0.000000 -2.696700 1.790197 14.911115 0.000000 0.000000 0.000000 30.597010 10.136081 14.326097 -7.144346 3.514577 17.892746 -24.457679 -43.512471 -52.434830 0.000000 0.000000 0.000000 -34.527108 7.047377 2.130933 31.144595 -4.009014 11.193022 7.403590 41.287113 -63.244763 
-0.020807 0.894133 0.167817 -0.959173 -12.189777 -1.780271 0.000000 0.000000 0.000000 -8.111013 -6.635928 -24.040502 4.470278 -1.528420 38.025946 6.912875 4.829687 -11.381908 0.000000 0.000000 0.000000 -0.804245 1.408282 -8.452812 13.692624 -2.494768 68.941091 -2.329514 -22.286340 19.331485 0.000000 0.000000 0.000000 -0.082810 0.035695 -0.219217 -3.344220 0.195841 -5.079962 1.969721 4.662539 9.582176 0.000000 0.000000 0.000000 -2.016231 1.285901 11.394614 0.000000 0.000000 0.000000 26.156901 9.421348 12.041168 -8.871613 2.796193 10.854921 -22.928864 -38.723070 -48.945438 0.000000 0.000000 0.000000 -30.381291 4.414899 3.910697 28.373557 -4.761106 13.557815 8.125803 35.040771 -55.344856 
-0.030912 0.897272 0.230896 -2.050276 -11.974984 -2.851525 0.000000 0.000000 0.000000 -8.119406 -5.347572 -19.372125 5.210156 -1.893347 40.235365 8.272875 4.288375 -14.547135 0.000000 0.000000 0.000000 0.687625 3.427133 -18.660964 15.593994 -4.660280 74.995198 -5.291684 -25.340800 15.074623 0.000000 0.000000 0.000000 2.144581 -0.660634 2.315758 -3.940712 0.276227 -4.912532 1.335956 3.095704 9.688967 0.000000 0.000000 0.000000 -2.402045 1.586759 10.910125 0.000000 0.000000 0.000000 24.177121 6.858701 9.277227 -12.743632 2.942456 7.483104 -20.552840 -36.414197 -49.476804 0.000000 0.000000 0.000000 -29.863546 3.118044 5.197753 27.113848 -5.824723 16.626058 7.571022 28.482352 -47.966289 
-0.043538 0.911128 0.290461 -4.101849 -10.988151 -3.566328 0.000000 0.000000 0.000000 -7.280490 -3.158438 -11.966781 7.312694 -2.842222 35.987891 8.623950 2.512431 -16.049121 0.000000 0.000000 0.000000 1.889872 5.406978 -26.874198 16.446480 -6.012150 70.478061 -6.907389 -27.527112 13.133133 0.000000 0.000000 0.000000 4.562571 -1.445141 4.359091 -3.856361 0.295284 -4.436945 1.403706 1.173647 9.487313 0.000000 0.000000 0.000000 -2.308158 1.590112 11.502059 0.000000 0.000000 0.000000 23.834881 3.797628 6.719730 -16.220780 2.965821 4.826429 -20.157056 -36.383048 -49.960410 0.000000 0.000000 0.000000 -30.384596 1.529750 6.949205 24.640837 -6.564138 19.589525 6.826570 24.088965 -42.948478 
-0.057647 0.924705 0.347226 -5.457898 -9.181589 -2.360833 0.000000 0.000000 0.000000 -5.660834 -1.925783 -7.898283 8.178024 -3.186551 32.527200 7.626179 -0.426558 -15.030384 0.000000 0.000000 0.000000 0.706511 6.780605 -34.434881 16.122715 -5.897045 58.859555 -6.621491 -27.665055 14.638824 0.000000 0.000000 0.000000 5.527717 -1.664204 3.949056 -3.022963 0.188665 -4.442748 1.515592 -0.682159 9.309161 0.000000 0.000000 0.000000 -1.568186 1.176695 13.121996 0.000000 0.000000 0.000000 24.324707 0.494394 4.190341 -17.984428 2.531171 1.947051 -21.583057 -36.854775 -48.321331 0.000000 0.000000 0.000000 -30.414849 -1.015289 9.321645 22.325040 -6.913192 21.742377 5.349318 19.927833 -38.931000 
-0.073127 0.933259 0.402092 -5.855734 -7.144941 -0.776760 0.000000 0.000000 0.000000 -3.697932 -1.227502 -5.399874 7.353220 -2.909920 30.483313 6.654158 -3.409608 -14.125674 0.000000 0.000000 0.000000 -1.335371 7.120106 -39.513533 13.110143 -3.737197 43.973918 -2.720683 -23.711399 20.796532 0.000000 0.000000 0.000000 5.538772 -1.615112 3.280903 -2.422465 0.096936 -4.690312 1.592015 -2.139024 8.755884 0.000000 0.000000 0.000000 -0.809787 0.694370 14.547621 0.000000 0.000000 0.000000 25.245181 -2.983862 1.564222 -18.292106 1.895132 -0.686411 -22.950997 -36.458564 -45.684568 0.000000 0.000000 0.000000 -30.792042 -3.192689 11.373827 22.200648 -7.396995 23.242474 2.698703 15.266599 -35.426023 
-0.088954 0.934669 0.458064 -5.924309 -5.492876 0.226111 0.000000 0.000000 0.000000 -1.853235 -0.496090 -2.430503 6.375467 -2.565319 28.766319 5.850242 -5.716408 -13.378741 0.000000 0.000000 0.000000 -2.009505 6.999967 -40.866511 6.960681 -0.785632 28.156243 6.240863 -13.535793 28.484051 0.000000 0.000000 0.000000 5.523096 -1.540834 2.585791 -1.875029 0.090748 -3.579243 1.797020 -2.990172 7.931261 0.000000 0.000000 0.000000 -0.845203 0.737385 16.104438 0.000000 0.000000 0.000000 25.847641 -6.409859 -1.133423 -18.388792 1.346650 -2.837795 -22.879506 -34.600926 -43.200242 0.000000 0.000000 0.000000 -31.195531 -3.684895 11.892312 22.821197 -8.033693 24.764370 0.109429 11.886260 -33.692662 
-0.107845 0.927991 0.516407 -5.823206 -3.733225 1.170168 0.000000 0.000000 0.000000 0.164202 -0.034970 -0.092285 5.507385 -2.372372 28.744902 5.433715 -7.847671 -13.273400 0.000000 0.000000 0.000000 -1.594078 6.727407 -39.754374 0.777721 0.767212 14.930850 14.651041 -3.966816 34.065834 0.000000 0.000000 0.000000 5.292133 -1.338053 1.351125 -1.268887 0.086661 -2.150613 2.025569 -3.671608 7.471362 0.000000 0.000000 0.000000 -1.136470 0.930673 17.156181 0.000000 0.000000 0.000000 26.383516 -9.142679 -3.306022 -19.074051 1.065509 -4.134719 -21.953449 -31.644480 -40.292652 0.000000 0.000000 0.000000 -31.293184 -3.842630 11.940276 22.720474 -8.182543 25.322773 -0.456992 10.989730 -32.867156 
-0.130409 0.914792 0.577544 -5.612855 -1.642073 1.287987 0.000000 0.000000 0.000000 1.852776 0.187269 1.479178 5.619575 -2.821317 32.486882 5.506375 -9.501542 -13.774066 0.000000 0.000000 0.000000 -0.933049 6.527599 -38.771768 -1.456746 1.416725 15.411639 19.868145 3.485328 35.894700 0.000000 0.000000 0.000000 4.643095 -1.141966 0.959628 -0.418420 0.028000 -0.823611 1.780398 -4.002410 7.048635 0.000000 0.000000 0.000000 -1.047774 0.747369 16.928201 0.000000 0.000000 0.000000 26.523926 -11.079434 -4.745661 -19.535536 1.033415 -4.347803 -20.526934 -27.830238 -36.541009 0.000000 0.000000 0.000000 -30.538078 -4.408034 11.864253 22.260028 -7.736756 24.488000 0.137440 11.498606 -32.682821 
-0.157971 0.900086 0.634011 -6.232353 -0.579733 0.819228 0.000000 0.000000 0.000000 3.777408 -0.079717 1.071128 4.986973 -3.354466 41.300821 4.711052 -7.005342 -11.382206 0.000000 0.000000 0.000000 1.692111 7.215798 -38.795040 -2.580129 2.641621 25.429940 12.567148 7.610988 19.870141 0.000000 0.000000 0.000000 4.608650 -1.428621 3.176798 -0.031710 -0.002105 -0.160185 1.473662 -3.347273 6.211686 0.000000 0.000000 0.000000 -1.838407 1.154230 15.130454 0.000000 0.000000 0.000000 25.891675 -12.162317 -5.450393 -19.766814 1.144747 -3.889092 -17.524302 -23.244723 -33.431013 0.000000 0.000000 0.000000 -28.572389 -2.762441 9.444136 23.149966 -7.220300 22.722755 -0.485558 11.029121 -32.918284 
-0.187285 0.891931 0.677462 -7.351513 -0.871482 0.075457 0.000000 0.000000 0.000000 5.851033 -1.129666 -3.593708 0.948868 -2.008742 55.877855 3.234889 1.321698 -4.991209 0.000000 0.000000 0.000000 5.487182 8.159578 -37.735931 -2.606550 3.219311 31.213744 7.667414 8.344642 10.230357 0.000000 0.000000 0.000000 4.240626 -1.857995 7.170140 0.078656 0.056184 1.548912 2.028190 -1.919464 4.851819 0.000000 0.000000 0.000000 -3.279880 2.000008 12.767447 0.000000 0.000000 0.000000 24.806459 -13.778926 -6.682506 -20.410507 1.307511 -3.314197 -11.967336 -16.916440 -30.389229 0.000000 0.000000 0.000000 -27.595035 2.660214 4.295775 25.643496 -6.232628 19.025073 -1.720122 9.630206 -32.318103 
-0.213302 0.889293 0.707467 -8.045929 -0.450532 0.255908 0.000000 0.000000 0.000000 7.632429 -2.666857 -12.135494 -4.508231 1.632944 68.968667 5.775649 12.662004 -2.850184 0.000000 0.000000 0.000000 7.360060 8.342057 -36.400001 -1.529354 2.803585 32.553549 4.932505 7.994290 5.186379 0.000000 0.000000 0.000000 2.843522 -2.025943 11.715633 -0.013579 0.091077 1.956691 2.923790 -0.200152 3.583154 0.000000 0.000000 0.000000 -4.758678 2.815729 11.465621 0.000000 0.000000 0.000000 25.022992 -16.448282 -8.714473 -21.364615 1.278252 -3.492440 -7.388421 -11.355192 -25.628310 0.000000 0.000000 0.000000 -28.260827 8.319538 -0.901339 26.938299 -4.696122 14.690763 -1.171306 10.474853 -33.043592 
-0.234532 0.894095 0.728718 -8.033023 0.400006 -0.099988 0.000000 0.000000 0.000000 8.138168 -4.038829 -20.326288 -8.175412 4.599763 73.948340 8.001915 16.089318 -5.042368 0.000000 0.000000 0.000000 8.677172 8.202631 -34.704772 -1.336955 2.640104 32.669325 4.140604 7.712729 3.819216 0.000000 0.000000 0.000000 0.147167 -1.831861 18.203852 -0.239055 0.079474 0.851243 4.007943 1.499246 3.027246 0.000000 0.000000 0.000000 -6.576532 3.802012 9.991508 0.000000 0.000000 0.000000 25.936215 -18.747779 -10.457936 -22.071264 0.750505 -5.394050 -4.162666 -7.460349 -20.848053 0.000000 0.000000 0.000000 -29.445302 13.071465 -5.533949 27.136533 -2.591128 9.236717 -0.621192 11.264920 -33.630027 
-0.253113 0.900784 0.745589 -7.597926 1.738056 0.381129 0.000000 0.000000 0.000000 8.406565 -5.407773 -28.135692 -11.428064 6.626203 70.786058 10.244157 20.787382 -6.335865 0.000000 0.000000 0.000000 9.838908 8.042181 -33.356393 -2.175779 2.811284 31.333848 3.636970 7.086888 3.233711 0.000000 0.000000 0.000000 -2.824488 -1.135834 22.957388 -0.479932 0.087379 0.173997 4.936586 2.989619 3.402095 0.000000 0.000000 0.000000 -7.980355 4.493263 8.339760 0.000000 0.000000 0.000000 27.634485 -20.827382 -12.111808 -22.439545 0.045120 -7.907176 -2.144655 -5.213047 -17.605852 0.000000 0.000000 0.000000 -31.785799 17.277326 -10.000307 28.127469 -0.579922 3.967338 -1.762105 10.178367 -33.686876 
